<mxfile host="app.diagrams.net" modified="2022-03-17T13:12:29.410Z" agent="5.0 (Windows NT 10.0; Win64; x64) AppleWebKit/537.36 (KHTML, like Gecko) Chrome/99.0.4844.74 Safari/537.36" etag="uCSaDER5GiKjY9bXJRai" version="17.1.3" type="github">
  <diagram id="69yhYbIRGskZwDsOsFeK" name="Page-1">
    <mxGraphModel dx="1019" dy="555" grid="1" gridSize="10" guides="1" tooltips="1" connect="1" arrows="1" fold="1" page="1" pageScale="1" pageWidth="827" pageHeight="1169" math="0" shadow="0">
      <root>
        <mxCell id="0" />
        <mxCell id="1" parent="0" />
        <mxCell id="B2S6LBWsrIcpIqGWcjBW-1" value="FIM" style="rounded=1;whiteSpace=wrap;html=1;" vertex="1" parent="1">
          <mxGeometry x="585" y="585" width="110" height="60" as="geometry" />
        </mxCell>
        <mxCell id="B2S6LBWsrIcpIqGWcjBW-3" value="INICIO" style="rounded=1;whiteSpace=wrap;html=1;" vertex="1" parent="1">
          <mxGeometry x="380" y="10" width="110" height="60" as="geometry" />
        </mxCell>
        <mxCell id="B2S6LBWsrIcpIqGWcjBW-4" value="num1, num2" style="shape=parallelogram;perimeter=parallelogramPerimeter;whiteSpace=wrap;html=1;fixedSize=1;" vertex="1" parent="1">
          <mxGeometry x="375" y="110" width="120" height="60" as="geometry" />
        </mxCell>
        <mxCell id="B2S6LBWsrIcpIqGWcjBW-14" style="edgeStyle=orthogonalEdgeStyle;rounded=0;orthogonalLoop=1;jettySize=auto;html=1;entryX=0.5;entryY=0;entryDx=0;entryDy=0;" edge="1" parent="1" source="B2S6LBWsrIcpIqGWcjBW-5" target="B2S6LBWsrIcpIqGWcjBW-1">
          <mxGeometry relative="1" as="geometry" />
        </mxCell>
        <mxCell id="B2S6LBWsrIcpIqGWcjBW-5" value="resul" style="shape=document;whiteSpace=wrap;html=1;boundedLbl=1;" vertex="1" parent="1">
          <mxGeometry x="580" y="460" width="120" height="80" as="geometry" />
        </mxCell>
        <mxCell id="B2S6LBWsrIcpIqGWcjBW-12" style="edgeStyle=orthogonalEdgeStyle;rounded=0;orthogonalLoop=1;jettySize=auto;html=1;entryX=0.5;entryY=0;entryDx=0;entryDy=0;" edge="1" parent="1" source="B2S6LBWsrIcpIqGWcjBW-6" target="B2S6LBWsrIcpIqGWcjBW-5">
          <mxGeometry relative="1" as="geometry" />
        </mxCell>
        <mxCell id="B2S6LBWsrIcpIqGWcjBW-6" value="resul = num1 + num2" style="rounded=0;whiteSpace=wrap;html=1;" vertex="1" parent="1">
          <mxGeometry x="580" y="350" width="120" height="60" as="geometry" />
        </mxCell>
        <mxCell id="B2S6LBWsrIcpIqGWcjBW-11" style="edgeStyle=orthogonalEdgeStyle;rounded=0;orthogonalLoop=1;jettySize=auto;html=1;" edge="1" parent="1" source="B2S6LBWsrIcpIqGWcjBW-7" target="B2S6LBWsrIcpIqGWcjBW-6">
          <mxGeometry relative="1" as="geometry" />
        </mxCell>
        <mxCell id="B2S6LBWsrIcpIqGWcjBW-15" style="edgeStyle=orthogonalEdgeStyle;rounded=0;orthogonalLoop=1;jettySize=auto;html=1;entryX=0.5;entryY=0;entryDx=0;entryDy=0;" edge="1" parent="1" source="B2S6LBWsrIcpIqGWcjBW-7" target="B2S6LBWsrIcpIqGWcjBW-16">
          <mxGeometry relative="1" as="geometry">
            <mxPoint x="240" y="270" as="targetPoint" />
          </mxGeometry>
        </mxCell>
        <mxCell id="B2S6LBWsrIcpIqGWcjBW-7" value="num1 é um numero&lt;br&gt;&amp;nbsp;num2 é um numero" style="rhombus;whiteSpace=wrap;html=1;" vertex="1" parent="1">
          <mxGeometry x="347.5" y="210" width="177.5" height="110" as="geometry" />
        </mxCell>
        <mxCell id="B2S6LBWsrIcpIqGWcjBW-8" value="" style="endArrow=classic;html=1;rounded=0;exitX=0.5;exitY=1;exitDx=0;exitDy=0;entryX=0.5;entryY=0;entryDx=0;entryDy=0;" edge="1" parent="1" source="B2S6LBWsrIcpIqGWcjBW-3" target="B2S6LBWsrIcpIqGWcjBW-4">
          <mxGeometry width="50" height="50" relative="1" as="geometry">
            <mxPoint x="370" y="240" as="sourcePoint" />
            <mxPoint x="440" y="100" as="targetPoint" />
          </mxGeometry>
        </mxCell>
        <mxCell id="B2S6LBWsrIcpIqGWcjBW-9" value="" style="endArrow=classic;html=1;rounded=0;entryX=0.5;entryY=0;entryDx=0;entryDy=0;exitX=0.5;exitY=1;exitDx=0;exitDy=0;" edge="1" parent="1" source="B2S6LBWsrIcpIqGWcjBW-4" target="B2S6LBWsrIcpIqGWcjBW-7">
          <mxGeometry width="50" height="50" relative="1" as="geometry">
            <mxPoint x="590" y="210" as="sourcePoint" />
            <mxPoint x="640" y="160" as="targetPoint" />
          </mxGeometry>
        </mxCell>
        <mxCell id="B2S6LBWsrIcpIqGWcjBW-16" value="entrada precisa ser numerica" style="shape=document;whiteSpace=wrap;html=1;boundedLbl=1;" vertex="1" parent="1">
          <mxGeometry x="180" y="360" width="120" height="80" as="geometry" />
        </mxCell>
        <mxCell id="B2S6LBWsrIcpIqGWcjBW-17" value="Não" style="text;html=1;align=center;verticalAlign=middle;resizable=0;points=[];autosize=1;strokeColor=none;fillColor=none;" vertex="1" parent="1">
          <mxGeometry x="230" y="220" width="40" height="20" as="geometry" />
        </mxCell>
        <mxCell id="B2S6LBWsrIcpIqGWcjBW-18" value="Sim" style="text;html=1;align=center;verticalAlign=middle;resizable=0;points=[];autosize=1;strokeColor=none;fillColor=none;" vertex="1" parent="1">
          <mxGeometry x="570" y="220" width="40" height="20" as="geometry" />
        </mxCell>
      </root>
    </mxGraphModel>
  </diagram>
</mxfile>
